<svg version="1.1" xmlns="http://www.w3.org/2000/svg" xmlns:xlink="http://www.w3.org/1999/xlink" x="0px" y="0px"
	 width="595.279px" height="380.98px" viewBox="0 0 595.279 380.98" enable-background="new 0 0 595.279 380.98"
	 xml:space="preserve">
<text transform="matrix(1 0 0 1 34.6399 45.8967)" font-family="Arial" font-size="20">Random data</text>
<path fill="none" stroke="#000000" stroke-width="4" stroke-linecap="round" stroke-linejoin="round" d="M34.64,188.896
	c7.685-9.607,18.193-23.667,29.192-29.626c2.968,1.901,4.292,4.884,3.959,8.476c4.121,0.691,7.879-3.802,10.8-3.008
	c6.6,1.793,9.992,15.414,12.196,21.096c9.557-5.538,14.188-14.09,25.83-18.155c9.44-3.297,19.976-3.65,30.016-2.83
	c11.667,0.954,15.625,0.288,21.806-12.758c2.684-5.662,5.701-19.694,7.201-26.194c1.525-7.992,9.317-15.259,16.219-18.826
	c1.623-0.839,5.148,1.426,5.754,1.021c3.005-2.007,4.492-9.823,8.055-10.356c10.305-1.544,16.062,25.168,19.971,29.724
	c7.302-12.061,11.049-29.329,24.029-36.553c14.977,27.409,15.713-4.226,38.07-3.828c3.883,0.068,5.455,3.803,10.874,3.617
	c7.494-0.257,5.357-5.655,12.057-0.6c3.647,2.753,5.692,10.113,8.75,13.799c3.735,4.506,9.25,8.517,14.047,14.242
	c8.436,10.073,10.192,8.469,20.821-2.084c3.438-3.412,9.507-7.75,12.351-11.552c3.547-4.742,3.524-14.475,9.031-17.626
	c4.901-2.807,7.479,0.215,12.877-2.783c7.204-4.001,9.903-11.293,17.149-13.468c2.377-0.713,16.459-5.281,19.57-5.021
	c6.951,0.584,7.026,12.902,13.397,13.434c5.468,0.455,13.277-11.18,20.101-10.94c5.69,0.199,4.592,4.99,10.1,6.824
	c7.535,2.509,8.67-7.843,13.051-13.563c4.279-5.585,9.423-10.279,15.005-14.73c9.717-7.748,7.582-3.425,16.77-0.707
	c8.943,2.646,7.607-1.136,16.25-6.816c7.047-4.634,17.854-10.582,25.773-14.346c1.151,1.45,3.907,2.731,4.93,4.139"/>
<path fill="none" stroke="#0059FF" stroke-width="4" stroke-linecap="round" stroke-linejoin="round" d="M34.64,235.896
	c7.685-9.607,18.193-23.667,29.192-29.626c2.968,1.901,4.292,4.884,3.959,8.476c4.121,0.691,7.879-3.802,10.8-3.008
	c6.6,1.793,9.992,15.414,12.196,21.096c9.557-5.538,14.188-14.09,25.83-18.155c9.44-3.297,19.976-3.65,30.016-2.83
	c11.667,0.954,15.625,0.288,21.806-12.758c2.684-5.662,5.701-19.694,7.201-26.194c1.525-7.992,9.317-15.259,16.219-18.826
	c1.623-0.839,5.148,1.426,5.754,1.021c3.005-2.007,4.492-9.823,8.055-10.356c10.305-1.544,16.062,25.168,19.971,29.724
	c7.302-12.061,11.049-29.329,24.029-36.553c14.977,27.409,15.713-4.226,38.07-3.828c3.883,0.068,5.455,3.803,10.874,3.617
	c7.494-0.257,5.357-5.655,12.057-0.6c3.647,2.753,5.692,10.113,8.75,13.799c3.735,4.506,9.25,8.517,14.047,14.242
	c8.436,10.073,10.192,8.469,20.821-2.084c3.438-3.412,9.507-7.75,12.351-11.552c3.547-4.742,3.524-14.475,9.031-17.626
	c4.901-2.807,7.479,0.215,12.877-2.783c7.204-4.001,9.903-11.293,17.149-13.468c2.377-0.713,16.459-5.281,19.57-5.021
	c6.951,0.584,7.026,12.902,13.397,13.434c5.468,0.455,13.277-11.18,20.101-10.94c5.69,0.199,4.592,4.99,10.1,6.824
	c7.535,2.509,8.67-7.843,13.051-13.563c4.279-5.585,9.423-10.279,15.005-14.73c9.717-7.748,7.582-3.426,16.77-0.707
	c8.943,2.646,7.607-1.136,16.25-6.816c7.047-4.634,17.854-10.582,25.773-14.346c1.151,1.45,3.907,2.731,4.93,4.139"/>
<path fill="none" stroke="#000000" stroke-width="4" stroke-linecap="round" stroke-linejoin="round" d="M199,254.896
	c4.375-1.927,10.864,1.227,16.012-0.599c3.259-1.156,3.277-2.817,6.375-1.79c1.607,0.533,2.028,3.124,4.613,3.389"/>
<path fill="none" stroke="#0059FF" stroke-width="4" stroke-linecap="round" stroke-linejoin="round" d="M199,287.809
	c4.375-1.928,10.864,1.228,16.012-0.599c3.259-1.155,3.277-2.817,6.375-1.79c1.607,0.533,2.028,3.124,4.613,3.389"/>
<text transform="matrix(1 0 0 1 253.4998 256.3967)" font-family="Arial" font-size="20">Spending money</text>
<text transform="matrix(1 0 0 1 253.4998 291.3518)" font-family="Arial" font-size="20">Spending money for a reason</text>
<path fill="none" stroke="#000000" stroke-width="2" stroke-linecap="round" stroke-linejoin="round" d="M38,206.396
	c-7.544,10.064-13.821,18.104-19.024,30.109c-7.005,16.161-4.71,33.396,0.133,49.926c6.208,21.188,16.184,40.961,35.964,52.188
	c19.487,11.06,47.748,15.276,69.927,15.276"/>
<path fill="none" stroke="#000000" stroke-width="2" stroke-linecap="round" stroke-linejoin="round" d="M14.04,219.371
	c8.136-0.665,15.689-10.573,23.96-12.975c-3.28,7.179-6.673,15.65-8.96,22.975"/>
<text transform="matrix(1 0 0 1 143.4998 356.8967)" font-family="Arial" font-size="20">There is a gap</text>
</svg>
